# xmcd
#
# Track frame offsets: 
#        150
#        2557
#        12635
#        24646
#        37740
#        50653
#        67077
#        83187
#        103789
#        116570
#        127455
#        147335
#        156779
#
# Disc length: 2189 seconds
#
# Revision: 0
# Processed by: cddbd v1.5.2PL0 Copyright (c) Steve Scherf et al.
# Submitted via: ExactAudioCopy v0.95b4
#
DISCID=b5088b0d
DTITLE=Truckee Brothers - Double Happiness
DYEAR=2007
DGENRE=Country
TTITLE0=Oohlong Intro
TTITLE1=Gritty Pretty
TTITLE2=Kiss My Komodo
TTITLE3=Formula O
TTITLE4=Planning For The 21st Century
TTITLE5=Double Happiness
TTITLE6=Bon Voyeurage
TTITLE7=Purple Waves of Gain
TTITLE8=Snap Tight
TTITLE9=I Am Nature
TTITLE10=Spectre
TTITLE11=Maga Watt
TTITLE12=Royale Finale
EXTD=
EXTT0=
EXTT1=
EXTT2=
EXTT3=
EXTT4=
EXTT5=
EXTT6=
EXTT7=
EXTT8=
EXTT9=
EXTT10=
EXTT11=
EXTT12=
PLAYORDER=
